<?xml version="1.0" encoding="UTF-8"?>
<svg width="16px" height="13px" viewBox="0 0 16 13" version="1.1" xmlns="http://www.w3.org/2000/svg" xmlns:xlink="http://www.w3.org/1999/xlink">
    <!-- Generator: sketchtool 62 (101010) - https://sketch.com -->
    <title>7AA805F7-30C4-42CD-90FD-2C74B8D11365@1x</title>
    <desc>Created with sketchtool.</desc>
    <g id="Child-Record" stroke="none" stroke-width="1" fill="none" fill-rule="evenodd">
        <g id="8.5-Child-record-–-Enrollment-and-Funding-NoFunding" transform="translate(-524.000000, -212.000000)" fill="#005EA2" fill-rule="nonzero">
            <g id="Template/ChildRecord">
                <g id="Group">
                    <path d="M524,215.499548 L524,214.999719 C524,214.585643 524.335781,214.249976 524.75,214.249976 L536,214.249976 L536,212.750491 C536,212.083001 536.809344,211.749521 537.280344,212.220329 L539.780344,214.719472 C540.073219,215.012278 540.073219,215.48699 539.780344,215.779764 L537.280344,218.278908 C536.811125,218.747872 536,218.419047 536,217.748777 L536,216.249291 L524.75,216.249291 C524.335781,216.249291 524,215.913625 524,215.499548 Z M539.25,220.24792 L528,220.24792 L528,218.748434 C528,218.0826 527.191812,217.746278 526.719656,218.218272 L524.219656,220.717415 C523.926781,221.010221 523.926781,221.484933 524.219656,221.777708 L526.719656,224.276851 C527.189281,224.746284 528,224.416397 528,223.74672 L528,222.247235 L539.25,222.247235 C539.664219,222.247235 540,221.911568 540,221.497492 L540,220.997663 C540,220.583586 539.664219,220.24792 539.25,220.24792 Z" id="Shape"></path>
                </g>
            </g>
        </g>
    </g>
</svg>