<?xml version="1.0" encoding="UTF-8"?>
<svg width="228px" height="173px" viewBox="0 0 228 173" version="1.1" xmlns="http://www.w3.org/2000/svg" xmlns:xlink="http://www.w3.org/1999/xlink">
    <!-- Generator: sketchtool 62 (101010) - https://sketch.com -->
    <title>B5553687-B2BF-430E-B52E-BC2DAB81FD1D@1x</title>
    <desc>Created with sketchtool.</desc>
    <g id="Sign-in-and-Home" stroke="none" stroke-width="1" fill="none" fill-rule="evenodd">
        <g id="3.-Home-page" transform="translate(-700.000000, -149.000000)" fill-rule="nonzero">
            <g id="Illustration" transform="translate(700.000000, 149.000000)">
                <path d="M221.078031,161.333532 L221.977458,159.032241 C223.070176,158.72601 224.178655,158.484034 225.297614,158.307465 L225.223691,159.426339 L225.684202,158.248072 C227.069911,158.044015 228,158 228,158 C228,158 226.131306,162.662472 223.069817,165.992675 L220.003223,166.109242 L222.282805,166.791302 C221.905716,167.148886 221.507345,167.481484 221.090053,167.787124 C216.872887,170.854142 212.489775,171.909968 211.300069,170.145392 C210.110362,168.380817 212.56459,164.464022 216.781738,161.397004 C218.145758,160.454308 219.640851,159.734341 221.21493,159.262188 L221.078031,161.333532 Z" id="Path" fill="#E6E6E6"></path>
                <path d="M212.51439,151.196745 L211.373061,147.898084 C212.281116,146.520842 213.265561,145.196288 214.321706,143.930732 L215.272427,145.184134 L214.688068,143.495207 C216.00944,141.943372 216.982034,141 216.982034,141 C216.982034,141 219.24382,147.727932 218.978331,154.198527 L215.745323,157.278801 L218.857141,155.801221 C218.775957,156.54264 218.648561,157.278182 218.475707,158.003491 C216.708767,165.310434 212.907363,170.652545 209.985012,169.93548 C207.062661,169.218415 206.125985,162.713666 207.892917,155.406735 C208.509876,153.09544 209.474904,150.893069 210.75438,148.87635 L212.51439,151.196745 Z" id="Path" fill="#E6E6E6"></path>
                <ellipse id="Oval" fill="#E6E6E6" cx="188.5" cy="171" rx="36.5" ry="2"></ellipse>
                <path d="M64.6928277,29 L38.6642999,29 L38.6642999,29.4926857 L64.6928277,29.4926857 C67.361335,29.4926857 69.5245876,31.7345367 69.5245876,34.5 C69.5245876,37.2654633 67.361335,39.5073143 64.6928277,39.5073143 L25.3071723,39.5073143 C22.638665,39.5073143 20.4754124,37.2654633 20.4754124,34.5 C20.4754124,31.7345367 22.638665,29.4926857 25.3071723,29.4926857 L26.77902,29.4926857 L26.77902,29 L25.3071723,29 C22.376102,29 20,31.4624339 20,34.5 C20,37.5375661 22.376102,40 25.3071723,40 L64.6928277,40 C67.623898,40 70,37.5375661 70,34.5 C70,31.4624339 67.623898,29 64.6928277,29 L64.6928277,29 Z" id="Path" fill="#E6E6E6"></path>
                <path d="M64.6956872,46 L38.6633799,46 L38.6633799,46.4926859 L64.6956872,46.4926859 C67.3645818,46.492686 69.5281484,48.7345375 69.5281484,51.5 C69.5281484,54.2654651 67.3645818,56.5073165 64.6956872,56.5073167 L25.3043128,56.5073167 C22.6354181,56.5073167 20.4718514,54.2654652 20.4718514,51.5 C20.4718514,48.7345373 22.6354181,46.4926859 25.3043128,46.4926859 L26.7763743,46.4926859 L26.7763743,46 L25.3043128,46 C22.3742351,46.0020764 20,48.463902 20,51.5 C20,54.536098 22.3742351,56.9979236 25.3043128,57 L64.6956872,57 C67.6257649,56.9979236 70,54.536098 70,51.5 C70,48.463902 67.6257649,46.0020764 64.6956872,46 L64.6956872,46 Z" id="Path" fill="#6C63FF"></path>
                <path d="M64.6960721,62 L38.6656541,62 L38.6656541,62.4926833 L64.6960721,62.4926833 C67.3647732,62.4926833 69.5281829,64.7345348 69.5281829,67.5 C69.5281829,70.2654627 67.3647732,72.5073141 64.6960721,72.5073141 L25.3075565,72.5073141 C22.6388554,72.5073141 20.4754457,70.2654627 20.4754457,67.5 C20.4754457,64.7345348 22.6388554,62.4926833 25.3075565,62.4926833 L26.7795111,62.4926833 L26.7795111,62 L25.3075565,62 C22.376274,62 20,64.4624339 20,67.5 C20,70.5375661 22.376274,73 25.3075565,73 L64.6960721,73 C67.6259372,72.9979236 70,70.536098 70,67.5 C70,64.463902 67.6259372,62.0020764 64.6960721,62 L64.6960721,62 Z" id="Path" fill="#E6E6E6"></path>
                <path d="M29.3862558,28.0002081 C28.6169879,28.0136725 28,28.6811979 28,29.5000121 C28,30.3188262 28.6169879,30.9863516 29.3862558,30.9998161 L35.568717,30.9998161 C36.3465263,31.0126488 36.9870344,30.3523986 36.9998061,29.5246168 C37.0125779,28.6968351 36.3927835,28.0145603 35.6149976,28.0002081 C35.599574,27.9999306 35.5841472,27.9999306 35.568717,28.0002081 L29.3862558,28.0002081 Z" id="bcf0cfa3-66a2-4303-bdd5-8030f4bfd15a" fill="#3F3D56"></path>
                <path d="M29.3861185,45.0002094 C28.6169386,45.0136304 28,45.6811633 28,46.5 C28,47.3188397 28.6169386,47.9863726 29.3861185,47.9997936 L35.5676426,47.9997936 C36.3458266,48.0133949 36.987028,47.352941 36.9998061,46.5246287 C37.0125842,45.6963164 36.3921002,45.0138106 35.6139162,45.0002094 C35.5984949,44.9999302 35.5830704,44.9999302 35.5676426,45.0002094 L29.3861185,45.0002094 Z" id="ec7ee251-c029-4a40-a2db-c56bfeeebca2" fill="#3F3D56"></path>
                <path d="M29.3861185,61.0002094 C28.6169386,61.0136304 28,61.6811633 28,62.5 C28,63.3188397 28.6169386,63.9863726 29.3861185,63.9997936 L35.5676426,63.9997936 C36.3458266,64.0133949 36.987028,63.352941 36.9998061,62.5246287 C37.0125842,61.6963164 36.3921002,61.0138106 35.6139162,61.0002094 C35.5984949,60.9999302 35.5830704,60.9999302 35.5676426,61.0002094 L29.3861185,61.0002094 Z" id="a580efb3-72c6-475f-9d34-6093d6a0cbd0" fill="#3F3D56"></path>
                <path d="M27.3807678,33.0002081 C26.6145571,33.0136291 26,33.6811623 26,34.5 C26,35.3188394 26.6145571,35.9863726 27.3807678,35.9997936 L62.5731718,35.9997936 C63.3483518,36.0133949 63.9870781,35.3529407 64,34.5246281 C64.0125356,33.6963154 63.3944468,33.0138093 62.6192668,33.0002081 C62.6039034,32.9999306 62.5885384,32.9999306 62.5731718,33.0002081 L27.3807678,33.0002081 Z" id="fe8fe944-e2e2-4630-bb61-cdb395efd789" fill="#E6E6E6"></path>
                <path d="M64.6956872,14 L38.6633799,14 L38.6633799,14.4926833 L64.6956872,14.4926833 C67.3645826,14.4926833 69.5281499,16.7345353 69.5281499,19.5 C69.5281499,22.2654647 67.3645826,24.5073167 64.6956872,24.5073167 L25.3043128,24.5073167 C22.6367699,24.5053356 20.4753125,22.2640639 20.4753125,19.5 C20.4753125,16.7359361 22.6367699,14.4946644 25.3043128,14.4926833 L26.7763743,14.4926833 L26.7763743,14 L25.3043128,14 C22.3742351,14.0020764 20,16.463902 20,19.5 C20,22.536098 22.3742351,24.9979236 25.3043128,25 L64.6956872,25 C67.6257649,24.9979236 70,22.536098 70,19.5 C70,16.463902 67.6257649,14.0020764 64.6956872,14 L64.6956872,14 Z" id="Path" fill="#E6E6E6"></path>
                <path d="M29.3861185,13.0002094 C28.6169386,13.0136304 28,13.6811633 28,14.5 C28,15.3188397 28.6169386,15.9863726 29.3861185,15.9997936 L35.5676426,15.9997936 C36.3458266,16.0133949 36.987028,15.352941 36.9998061,14.5246287 C37.0125842,13.6963164 36.3921002,13.0138106 35.6139162,13.0002094 C35.5984949,12.9999302 35.5830704,12.9999302 35.5676426,13.0002094 L29.3861185,13.0002094 Z" id="bcfa29a8-6865-4c73-8c61-6a785352b808" fill="#3F3D56"></path>
                <path d="M27.3806511,18.0002081 C26.6144934,18.0136723 26,18.6811883 26,19.5 C26,20.3187935 26.6144934,20.9863094 27.3806511,20.9997737 L62.5719311,20.9997737 C63.0736683,21.0090695 63.5418878,20.7314587 63.800027,20.2716264 C64.0581662,19.8117941 64.0669576,19.239689 63.823086,18.7710483 C63.5792143,18.3024076 63.1197769,18.0085198 62.6180246,18.0002081 C62.6026617,17.9999306 62.5872972,17.9999306 62.5719311,18.0002081 L27.3806511,18.0002081 Z" id="e794b9a0-7aca-4299-a24e-8f26dee3f545" fill="#E6E6E6"></path>
                <path d="M27.3807679,50.0002094 C26.6145572,50.0136305 26,50.6811641 26,51.5 C26,52.3188423 26.6145572,52.9863759 27.3807679,52.999797 L62.5731754,52.999797 C63.0746289,53.0085954 63.542384,52.7308665 63.8002417,52.2712279 C64.0580994,51.8115893 64.0668851,51.2398711 63.8232892,50.7714341 C63.5796933,50.302997 63.1207239,50.0090079 62.6192703,50.0002094 C62.603907,49.9999302 62.588542,49.9999302 62.5731754,50.0002094 L27.3807679,50.0002094 Z" id="bf86555d-9ede-426e-830a-ea26134fbb4f" fill="#6C63FF"></path>
                <path d="M27.3807679,66.0002081 C26.6145572,66.0136291 26,66.6811631 26,67.5 C26,68.318842 26.6145572,68.9863759 27.3807679,68.999797 L62.5731754,68.999797 C63.0746289,69.0085954 63.542384,68.7308664 63.8002417,68.2712276 C64.0580994,67.8115888 64.0668851,67.2398704 63.8232892,66.7714331 C63.5796933,66.3029959 63.1207239,66.0090065 62.6192703,66.0002081 C62.603907,65.9999306 62.588542,65.9999306 62.5731754,66.0002081 L27.3807679,66.0002081 Z" id="bd15929f-7f71-4330-8805-c384166b6a45" fill="#E6E6E6"></path>
                <polygon id="Path" fill="#6C63FF" points="80 51 75 48 75 54 80 51 75 48 75 54"></polygon>
                <path d="M85.0505301,85.2853192 L1.77631553,85.2853192 C1.18796276,85.284672 0.711169076,84.8050901 0.710525717,84.2132967 L0.710525717,1.78670333 C0.711169076,1.19490991 1.18796276,0.715327956 1.77631553,0.714680834 L88.2236845,0.714680834 C88.8120378,0.715326587 89.2888323,1.19490934 89.2894743,1.78670333 L89.2894743,50.5888658 L90,50.5888658 L90,1.78670333 C89.9989286,0.800381039 89.2042723,0.00107762367 88.2236845,0 L1.77631553,0 C0.795727666,0.00107762367 0.00107135843,0.800381039 0,1.78670333 L0,84.2132967 C0.00107135843,85.199619 0.795727666,85.9989224 1.77631553,86 L85.0505301,86 L85.0505301,85.2853192 Z" id="Path" fill="#E6E6E6"></path>
                <path d="M161.248502,49 L86.7514956,49 C85.7846664,49 85,49.6299972 85,50.4062496 L85,67 L163,67 L163,50.4062496 C163,49.6299972 162.215331,49 161.248502,49 Z" id="Path" fill="#6C63FF"></path>
                <path d="M162.226048,49 L86.7739518,49 C85.7943727,49 85,49.7960858 85,50.7777775 L85,111.222222 C85,112.203914 85.7943727,113 86.7739518,113 L162.226048,113 C163.205627,113 164,112.203914 164,111.222222 L164,50.7777775 C164,49.7960858 163.205627,49 162.226048,49 Z M163.29042,111.222222 C163.289533,111.810958 162.813517,112.288001 162.226048,112.288889 L86.7739518,112.288889 C86.1864837,112.288001 85.7104682,111.810957 85.7095827,111.222222 L85.7095827,50.7777775 C85.7104627,50.1890402 86.1864815,49.7119938 86.7739518,49.7111105 L162.226048,49.7111105 C162.813519,49.7119938 163.289538,50.1890398 163.29042,50.7777775 L163.29042,111.222222 Z" id="Shape" fill="#E6E6E6"></path>
                <path d="M143.692828,76 L117.6643,76 L117.6643,76.4926857 L143.692828,76.4926857 C146.361335,76.4926857 148.524588,78.7345367 148.524588,81.5 C148.524588,84.2654633 146.361335,86.5073143 143.692828,86.5073143 L104.307175,86.5073143 C101.638667,86.5073143 99.4754149,84.2654633 99.4754149,81.5 C99.4754149,78.7345367 101.638667,76.4926857 104.307175,76.4926857 L105.77902,76.4926857 L105.77902,76 L104.307172,76 C101.376102,76 99,78.4624339 99,81.5 C99,84.5375661 101.376102,87 104.307172,87 L143.692828,87 C146.623898,87 149,84.5375661 149,81.5 C149,78.4624339 146.623898,76 143.692828,76 L143.692828,76 Z" id="Path" fill="#E6E6E6"></path>
                <path d="M143.692829,92 L117.6643,92 L117.6643,92.4926859 L143.692829,92.4926859 C146.361336,92.4926859 148.524589,94.7345373 148.524589,97.5 C148.524589,100.265465 146.361336,102.507317 143.692829,102.507317 L104.307174,102.507317 C101.638666,102.507317 99.4754137,100.265465 99.4754137,97.5 C99.4754137,94.7345373 101.638666,92.4926859 104.307174,92.4926859 L105.779019,92.4926859 L105.779019,92 L104.307171,92 C101.376102,92 99,94.4624339 99,97.5 C99,100.537566 101.376102,103 104.307171,103 L143.692829,103 C146.623898,103 149,100.537566 149,97.5 C149,94.4624339 146.623898,92 143.692829,92 L143.692829,92 Z" id="Path" fill="#E6E6E6"></path>
                <path d="M109.386119,74.0002068 C108.616939,74.0136278 108,74.6811613 108,75.5 C108,76.3188391 108.616939,76.9863726 109.386119,76.9997936 L115.567643,76.9997936 C116.345827,77.0133948 116.987028,76.3529404 116.999806,75.5246274 C117.012584,74.6963144 116.3921,74.0138081 115.613916,74.0002068 C115.598493,73.9999311 115.583069,73.9999311 115.567643,74.0002068 L109.386119,74.0002068 Z" id="f0e892c8-c763-4555-99cb-2aee4aa2c1bd" fill="#3F3D56"></path>
                <path d="M109.386119,91.0002094 C108.616939,91.0136304 108,91.6811633 108,92.5 C108,93.3188397 108.616939,93.9863726 109.386119,93.9997936 L115.567643,93.9997936 C116.345827,94.0133948 116.987028,93.352941 116.999806,92.5246287 C117.012584,91.6963164 116.3921,91.0138107 115.613916,91.0002094 C115.598493,90.9999302 115.583069,90.9999302 115.567643,91.0002094 L109.386119,91.0002094 Z" id="b030a2e8-ef2c-42ed-9562-f4777aec2710" fill="#3F3D56"></path>
                <path d="M106.380768,79.0002094 C105.614557,79.0136305 105,79.6811641 105,80.5 C105,81.3188423 105.614557,81.9863759 106.380768,81.999797 L141.573175,81.999797 C142.074629,82.0085955 142.542384,81.7308665 142.800242,81.2712279 C143.058099,80.8115893 143.066885,80.2398711 142.823289,79.7714341 C142.579693,79.302997 142.120724,79.0090078 141.61927,79.0002094 C141.603907,78.9999302 141.588542,78.9999302 141.573175,79.0002094 L106.380768,79.0002094 Z" id="b7b74475-3363-467c-a0a1-8003b6263e2a" fill="#E6E6E6"></path>
                <path d="M106.380768,96.0002094 C105.614557,96.0136305 105,96.6811641 105,97.5 C105,98.3188423 105.614557,98.9863759 106.380768,98.999797 L141.573175,98.999797 C142.074629,99.0085954 142.542384,98.7308665 142.800242,98.2712279 C143.058099,97.8115893 143.066885,97.2398711 142.823289,96.7714341 C142.579693,96.302997 142.120724,96.0090079 141.61927,96.0002094 C141.603907,95.9999302 141.588542,95.9999302 141.573175,96.0002094 L106.380768,96.0002094 Z" id="ef56dfc7-cfad-4aec-8de6-97ba4c392594" fill="#E6E6E6"></path>
                <circle id="Oval" fill="#FFFFFF" cx="95" cy="58" r="5"></circle>
                <path d="M105.235434,54.0002086 C104.549873,54.013623 104,54.6811588 104,55.5 C104,56.3188469 104.549873,56.9863827 105.235434,56.999797 L136.723371,56.999797 C137.17204,57.0085943 137.590557,56.7308641 137.82127,56.2712247 C138.051984,55.8115854 138.059844,55.2398671 137.841889,54.7714305 C137.623934,54.302994 137.213277,54.0090059 136.764608,54.0002086 C136.750863,53.9999305 136.737117,53.9999305 136.723371,54.0002086 L105.235434,54.0002086 Z" id="b00574f6-7832-428e-9f30-d233874666a9" fill="#FFFFFF"></path>
                <path d="M104.251917,59.0002072 C103.557209,59.0136215 103,59.6811569 103,60.5 C103,61.318844 103.557209,61.9863794 104.251917,61.9997937 L156.706335,61.9997937 C157.40917,62.013393 157.988286,61.3529371 158,60.5246242 C158.011364,59.6963112 157.450958,59.0138065 156.748122,59.0002072 C156.734194,58.9999309 156.720265,58.9999309 156.706335,59.0002072 L104.251917,59.0002072 Z" id="a75f2174-018f-4ccd-a38d-4db47ce7fed4" fill="#FFFFFF"></path>
                <path d="M205,64.8000018 L194.22449,66 C194.371586,62.7563447 194.091801,59.7307762 193,57.120001 L201.816335,54 C201.026299,57.2300092 202.509901,60.9144217 205,64.8000018 Z" id="Path" fill="#A0616A"></path>
                <path d="M206.179465,100.292907 L209.595775,106.330048 C210.006511,107.055877 210.109152,107.913497 209.881118,108.714241 C209.653084,109.514985 209.113054,110.193259 208.37983,110.599849 C208.366209,110.60741 208.352534,110.614864 208.338808,110.622211 L208.338808,110.622211 C207.403923,111.122814 206.277771,111.126096 205.339925,110.630949 C204.402079,110.135803 203.777468,109.208186 203.676619,108.160755 L203.12108,102.391272 L201.228417,80.3689721 L198,65.8837547 L204.702955,64 L207.822975,80.2891396 L206.179465,100.292907 Z" id="Path" fill="#A0616A"></path>
                <path d="M212,164 L207.751554,163.764352 L198.31056,121.818739 L178.248446,164 L174,163.764352 L186.273293,98.7250728 L186.509316,86.9425981 L201.850932,86 C207.584778,92.2957569 210.832107,98.8067102 211.291926,105.558909 L212,164 Z" id="Path" fill="#2F2E41"></path>
                <path d="M177.457234,171.96965 C176.650622,172.332685 175.875149,169.304311 175.294598,170.050756 C173.344933,172.557614 168.805609,171.771255 168.825939,171.481692 C168.200429,171.283422 167.856336,170.622634 168.057386,170.005779 C168.06318,169.987995 168.069409,169.970349 168.07607,169.952842 L168.07607,169.952842 C168.213407,169.591675 168.521991,169.320157 168.901451,169.226602 L170.92543,168.727612 L174.103385,163.216136 L177.347635,163 L177.347635,163 C178.812979,164.842285 179.34127,167.245262 178.78118,169.520597 C178.486775,170.705592 178.032277,171.710839 177.457234,171.96965 Z" id="Path" fill="#2F2E41"></path>
                <path d="M211.460356,171.944671 C210.653452,172.298176 209.877854,169.349407 209.296918,170.076147 C207.049947,172.887064 202.674651,171.916884 202.825901,171.469521 C202.525411,171.376802 202.275599,171.173295 202.13142,170.903769 C201.987241,170.634243 201.960506,170.320777 202.057097,170.032329 C202.062894,170.015014 202.069119,169.997836 202.075773,169.980796 L202.075773,169.980796 C202.21316,169.62911 202.521857,169.364719 202.901455,169.27362 L204.926187,168.787714 L208.105301,163.420912 L211.569995,163 L211.657505,163.137381 C213.012509,165.233691 213.361324,167.788643 212.614813,170.149328 C212.326656,171.035538 211.934459,171.736969 211.460356,171.944671 Z" id="Path" fill="#2F2E41"></path>
                <circle id="Oval" fill="#A0616A" cx="195.5" cy="51.5" r="7.5"></circle>
                <path d="M201.778913,87.0344828 L185.935667,88 L184.51687,78.8275849 C183.048135,74.7044176 184.883838,70.9166677 187.827398,67.2413781 L193.975524,60.2413799 L202.488324,60 L202.488324,60 C204.827308,60.7841037 206.512639,62.876068 206.814614,65.370129 C207.428148,70.5016613 206.510752,75.7027681 204.18234,80.2935993 L201.778913,87.0344828 Z" id="Path" fill="#E6E6E6"></path>
                <path d="M185.090774,107.42895 L186.227777,114.315045 C186.364478,115.142941 186.169759,115.991743 185.686456,116.674723 C185.203154,117.357703 184.470857,117.818914 183.650666,117.956895 C183.635425,117.959468 183.620174,117.961918 183.60491,117.964244 L183.60491,117.964244 C182.565168,118.123258 181.515697,117.745513 180.810221,116.958326 C180.104744,116.171139 179.837235,115.079369 180.097859,114.050997 L181.533438,108.386473 L187.225201,86.8418508 L189.122455,72 L196,72.4787682 L193.391279,88.9963163 L185.090774,107.42895 Z" id="Path" fill="#A0616A"></path>
                <path d="M204.212817,80 L204.041325,80 C200.807832,77.2051465 197.997878,74.0720362 200.267141,70.1495769 C198.342585,65.2769596 196.197013,60.2169111 196.326677,57.0865183 C196.462785,54.7719907 195.7159,52.4918103 194.236042,50.7039752 C192.190961,48.3210055 191.735794,47.2567593 188.000697,48.1579323 L188.000697,48.1579323 C187.946416,44.2592398 191.070795,41.0548307 194.979193,41.0006839 C195.097704,40.9990366 195.216198,41 195.334672,41.0046693 L197.668228,41.0893132 C199.453344,41.1540752 205.158476,41.8819925 206.383342,43.0570689 C207.642133,44.3053546 208.243953,46.06863 208.010261,47.8237854 C207.781309,49.7666974 208.395805,51.4821777 210.03754,52.9206685 C213.180673,56.1628081 214.47704,59.5268896 212.69499,63.0941966 C211.349861,66.8707198 211.414107,69.9792305 214.883778,71.4736134 L214.883778,71.4736134 C216.010626,75.7874817 208.681844,80 204.212817,80 Z" id="Path" fill="#2F2E41"></path>
                <path d="M197.118239,75 C194.059246,72.7833968 191.01892,72.6083022 188,74.766573 L188.824406,65.9026049 C188.776993,63.298179 190.9229,61.1293562 193.669808,61.0054598 L193.669808,61.0054598 C195.017751,60.9446652 196.335982,61.3935552 197.334506,62.2533791 C198.333031,63.113203 198.930053,64.3135284 198.994236,65.5902972 C198.999427,65.693398 199.001112,65.7965767 198.99929,65.8998334 L197.118239,75 Z" id="Path" fill="#E6E6E6"></path>
                <ellipse id="Oval" fill="#A0616A" cx="196" cy="53.5" rx="1" ry="1.5"></ellipse>
            </g>
        </g>
    </g>
</svg>