<?xml version="1.0" encoding="UTF-8"?>
<svg width="223px" height="143px" viewBox="0 0 223 143" version="1.1" xmlns="http://www.w3.org/2000/svg" xmlns:xlink="http://www.w3.org/1999/xlink">
    <!-- Generator: sketchtool 62 (101010) - https://sketch.com -->
    <title>EB951780-0AA7-4751-AAD6-6CC08469313A@1x</title>
    <desc>Created with sketchtool.</desc>
    <g id="Sign-in-and-Home" stroke="none" stroke-width="1" fill="none" fill-rule="evenodd">
        <g id="Data-template-page" transform="translate(-841.000000, -171.000000)" fill-rule="nonzero">
            <g id="Spreadsheet-illustration" transform="translate(841.000000, 171.000000)">
                <g id="Group-2">
                    <rect id="Rectangle" fill="#E6E6E6" x="0" y="0" width="223" height="143"></rect>
                    <rect id="Rectangle" fill="#FFFFFF" x="6" y="18" width="210" height="116"></rect>
                    <rect id="Rectangle" fill="#61366F" x="0" y="0" width="223" height="9"></rect>
                    <circle id="Oval" fill="#FFFFFF" cx="7" cy="5" r="2"></circle>
                    <circle id="Oval" fill="#FFFFFF" cx="13" cy="5" r="2"></circle>
                    <circle id="Oval" fill="#FFFFFF" cx="20" cy="5" r="2"></circle>
                    <rect id="Rectangle" fill="#E6E6E6" x="27" y="38" width="21" height="9"></rect>
                    <rect id="Rectangle" fill="#E6E6E6" x="69" y="57" width="21" height="9"></rect>
                    <rect id="Rectangle" fill="#61366F" x="27" y="86" width="21" height="9"></rect>
                    <rect id="Rectangle" fill="#61366F" x="69" y="106" width="21" height="9"></rect>
                    <rect id="Rectangle" fill="#61366F" x="174" y="115" width="21" height="9"></rect>
                    <rect id="Rectangle" fill="#E6E6E6" x="153" y="77" width="21" height="9"></rect>
                    <rect id="Rectangle" fill="#61366F" x="90" y="77" width="42" height="9"></rect>
                    <rect id="Rectangle" fill="#61366F" x="90" y="28" width="42" height="9"></rect>
                    <path d="M6,18 L6,135 L217,135 L217,18 L6,18 Z M216.308197,27.6925319 L195.969246,27.6925319 L195.969246,18.6902655 L216.308197,18.6902655 L216.308197,27.6925319 Z M90.8151477,95.539762 L90.8151477,86.5376647 L132.184849,86.5376647 L132.184849,95.539762 L90.8151477,95.539762 Z M132.184849,96.2300275 L132.184849,105.232297 L90.8151477,105.232297 L90.8151477,96.2300275 L132.184849,96.2300275 Z M132.184849,57.4602311 L132.184849,66.4623284 L90.8151477,66.4623284 L90.8151477,57.4602311 L132.184849,57.4602311 Z M90.8151477,56.7699656 L90.8151477,47.7676991 L132.184849,47.7676991 L132.184849,56.7699656 L90.8151477,56.7699656 Z M90.8151477,76.1548673 L90.8151477,67.1525973 L132.184849,67.1525973 L132.184849,76.1548673 L90.8151477,76.1548673 Z M132.184849,76.8451327 L132.184849,85.8473992 L90.8151477,85.8473992 L90.8151477,76.8451327 L132.184849,76.8451327 Z M90.1233444,66.4623319 L69.7843972,66.4623319 L69.7843972,57.4602345 L90.1233444,57.4602345 L90.1233444,66.4623319 Z M90.1233444,67.1525973 L90.1233444,76.1548673 L69.7843972,76.1548673 L69.7843972,67.1525973 L90.1233444,67.1525973 Z M90.1233444,76.8451327 L90.1233444,85.8473992 L69.7843972,85.8473992 L69.7843972,76.8451327 L90.1233444,76.8451327 Z M90.1233444,86.5376647 L90.1233444,95.539762 L69.7843972,95.539762 L69.7843972,86.5376647 L90.1233444,86.5376647 Z M132.876652,86.5376647 L153.215599,86.5376647 L153.215599,95.539762 L132.876652,95.539762 L132.876652,86.5376647 Z M132.876652,85.8473992 L132.876652,76.8451327 L153.215599,76.8451327 L153.215599,85.8473992 L132.876652,85.8473992 Z M132.876652,76.1548673 L132.876652,67.1525973 L153.215599,67.1525973 L153.215599,76.1548673 L132.876652,76.1548673 Z M132.876652,66.4623319 L132.876652,57.4602345 L153.215599,57.4602345 L153.215599,66.4623319 L132.876652,66.4623319 Z M132.876652,56.769969 L132.876652,47.7676991 L153.215599,47.7676991 L153.215599,56.769969 L132.876652,56.769969 Z M132.876652,47.0774371 L132.876652,38.0751672 L153.215599,38.0751672 L153.215599,47.0774371 L132.876652,47.0774371 Z M132.184849,47.0774371 L90.8151477,47.0774371 L90.8151477,38.0751672 L132.184849,38.0751672 L132.184849,47.0774371 Z M90.1233444,47.0774371 L69.7843972,47.0774371 L69.7843972,38.0751672 L90.1233444,38.0751672 L90.1233444,47.0774371 Z M90.1233444,47.7676991 L90.1233444,56.769969 L69.7843972,56.769969 L69.7843972,47.7676991 L90.1233444,47.7676991 Z M69.0925939,56.769969 L48.7533043,56.769969 L48.7533043,47.7676991 L69.0925939,47.7676991 L69.0925939,56.769969 Z M69.0925939,57.4602345 L69.0925939,66.4623319 L48.7533043,66.4623319 L48.7533043,57.4602345 L69.0925939,57.4602345 Z M69.0925939,67.1525973 L69.0925939,76.1548673 L48.7533043,76.1548673 L48.7533043,67.1525973 L69.0925939,67.1525973 Z M69.0925939,76.8451327 L69.0925939,85.8473992 L48.7533043,85.8473992 L48.7533043,76.8451327 L69.0925939,76.8451327 Z M69.0925939,86.5376647 L69.0925939,95.539762 L48.7533043,95.539762 L48.7533043,86.5376647 L69.0925939,86.5376647 Z M69.0925939,96.2300275 L69.0925939,105.232297 L48.7533043,105.232297 L48.7533043,96.2300275 L69.0925939,96.2300275 Z M69.7843972,96.2300275 L90.1233444,96.2300275 L90.1233444,105.232297 L69.7843972,105.232297 L69.7843972,96.2300275 Z M90.1233444,105.922563 L90.1233444,114.92466 L69.7843972,114.92466 L69.7843972,105.922563 L90.1233444,105.922563 Z M90.8151477,105.922563 L132.184849,105.922563 L132.184849,114.92466 L90.8151477,114.92466 L90.8151477,105.922563 Z M132.876652,105.922563 L153.215599,105.922563 L153.215599,114.92466 L132.876652,114.92466 L132.876652,105.922563 Z M132.876652,105.232297 L132.876652,96.2300275 L153.215599,96.2300275 L153.215599,105.232297 L132.876652,105.232297 Z M153.907403,96.2300275 L174.246692,96.2300275 L174.246692,105.232297 L153.907403,105.232297 L153.907403,96.2300275 Z M153.907403,95.539762 L153.907403,86.5376647 L174.246692,86.5376647 L174.246692,95.539762 L153.907403,95.539762 Z M153.907403,85.8473992 L153.907403,76.8451327 L174.246692,76.8451327 L174.246692,85.8473992 L153.907403,85.8473992 Z M153.907403,76.1548673 L153.907403,67.1525973 L174.246692,67.1525973 L174.246692,76.1548673 L153.907403,76.1548673 Z M153.907403,66.4623319 L153.907403,57.4602345 L174.246692,57.4602345 L174.246692,66.4623319 L153.907403,66.4623319 Z M153.907403,56.769969 L153.907403,47.7676991 L174.246692,47.7676991 L174.246692,56.769969 L153.907403,56.769969 Z M153.907403,47.0774371 L153.907403,38.0751672 L174.246692,38.0751672 L174.246692,47.0774371 L153.907403,47.0774371 Z M153.907403,37.3849017 L153.907403,28.3828043 L174.246692,28.3828043 L174.246692,37.3849017 L153.907403,37.3849017 Z M153.215599,37.3849017 L132.876652,37.3849017 L132.876652,28.3828043 L153.215599,28.3828043 L153.215599,37.3849017 Z M132.184849,37.3849017 L90.8151477,37.3849017 L90.8151477,28.3828043 L132.184849,28.3828043 L132.184849,37.3849017 Z M90.1233444,37.3849017 L69.7843972,37.3849017 L69.7843972,28.3828043 L90.1233444,28.3828043 L90.1233444,37.3849017 Z M69.0925939,37.3849017 L48.7533043,37.3849017 L48.7533043,28.3828043 L69.0925939,28.3828043 L69.0925939,37.3849017 Z M69.0925939,38.0751672 L69.0925939,47.0774371 L48.7533043,47.0774371 L48.7533043,38.0751672 L69.0925939,38.0751672 Z M48.061501,47.0774371 L27.7225538,47.0774371 L27.7225538,38.0751672 L48.061501,38.0751672 L48.061501,47.0774371 Z M48.061501,47.7676991 L48.061501,56.769969 L27.7225538,56.769969 L27.7225538,47.7676991 L48.061501,47.7676991 Z M48.061501,57.4602345 L48.061501,66.4623319 L27.7225538,66.4623319 L27.7225538,57.4602345 L48.061501,57.4602345 Z M48.061501,67.1525973 L48.061501,76.1548673 L27.7225538,76.1548673 L27.7225538,67.1525973 L48.061501,67.1525973 Z M48.061501,76.8451327 L48.061501,85.8473992 L27.7225538,85.8473992 L27.7225538,76.8451327 L48.061501,76.8451327 Z M48.061501,86.5376647 L48.061501,95.539762 L27.7225538,95.539762 L27.7225538,86.5376647 L48.061501,86.5376647 Z M48.061501,96.2300275 L48.061501,105.232297 L27.7225538,105.232297 L27.7225538,96.2300275 L48.061501,96.2300275 Z M48.061501,105.922563 L48.061501,114.92466 L27.7225538,114.92466 L27.7225538,105.922563 L48.061501,105.922563 Z M48.7533043,105.922563 L69.0925939,105.922563 L69.0925939,114.92466 L48.7533043,114.92466 L48.7533043,105.922563 Z M69.0925939,115.614926 L69.0925939,124.617368 L48.7533043,124.617368 L48.7533043,115.614926 L69.0925939,115.614926 Z M69.7843972,115.614926 L90.1233444,115.614926 L90.1233444,124.617368 L69.7843972,124.617368 L69.7843972,115.614926 Z M90.8151477,115.614926 L132.184849,115.614926 L132.184849,124.617368 L90.8151477,124.617368 L90.8151477,115.614926 Z M132.876652,115.614926 L153.215599,115.614926 L153.215599,124.617368 L132.876652,124.617368 L132.876652,115.614926 Z M153.907403,115.614926 L174.246692,115.614926 L174.246692,124.617368 L153.907403,124.617368 L153.907403,115.614926 Z M153.907403,114.92466 L153.907403,105.922563 L174.246692,105.922563 L174.246692,114.92466 L153.907403,114.92466 Z M174.938496,105.922563 L195.277443,105.922563 L195.277443,114.92466 L174.938496,114.92466 L174.938496,105.922563 Z M174.938496,105.232297 L174.938496,96.2300275 L195.277443,96.2300275 L195.277443,105.232297 L174.938496,105.232297 Z M174.938496,95.539762 L174.938496,86.5376647 L195.277443,86.5376647 L195.277443,95.539762 L174.938496,95.539762 Z M174.938496,85.8473992 L174.938496,76.8451327 L195.277443,76.8451327 L195.277443,85.8473992 L174.938496,85.8473992 Z M174.938496,76.1548673 L174.938496,67.1525973 L195.277443,67.1525973 L195.277443,76.1548673 L174.938496,76.1548673 Z M174.938496,66.4623319 L174.938496,57.4602345 L195.277443,57.4602345 L195.277443,66.4623319 L174.938496,66.4623319 Z M174.938496,56.769969 L174.938496,47.7676991 L195.277443,47.7676991 L195.277443,56.769969 L174.938496,56.769969 Z M174.938496,47.0774371 L174.938496,38.0751672 L195.277443,38.0751672 L195.277443,47.0774371 L174.938496,47.0774371 Z M174.938496,37.3849017 L174.938496,28.3828043 L195.277443,28.3828043 L195.277443,37.3849017 L174.938496,37.3849017 Z M174.938496,27.6925388 L174.938496,18.6902655 L195.277443,18.6902655 L195.277443,27.6925388 L174.938496,27.6925388 Z M174.246692,27.6925388 L153.907403,27.6925388 L153.907403,18.6902655 L174.246692,18.6902655 L174.246692,27.6925388 Z M153.215599,27.6925388 L132.876652,27.6925388 L132.876652,18.6902655 L153.215599,18.6902655 L153.215599,27.6925388 Z M132.184849,27.6925388 L90.8151477,27.6925388 L90.8151477,18.6902655 L132.184849,18.6902655 L132.184849,27.6925388 Z M90.1233444,27.6925388 L69.7843972,27.6925388 L69.7843972,18.6902655 L90.1233444,18.6902655 L90.1233444,27.6925388 Z M69.0925939,27.6925388 L48.7533043,27.6925388 L48.7533043,18.6902655 L69.0925939,18.6902655 L69.0925939,27.6925388 Z M48.061501,27.6925388 L27.7225538,27.6925388 L27.7225538,18.6902655 L48.061501,18.6902655 L48.061501,27.6925388 Z M48.061501,28.3828043 L48.061501,37.3849017 L27.7225538,37.3849017 L27.7225538,28.3828043 L48.061501,28.3828043 Z M27.0307505,37.3849017 L6.69180328,37.3849017 L6.69180328,28.3828043 L27.0307505,28.3828043 L27.0307505,37.3849017 Z M27.0307505,38.0751672 L27.0307505,47.0774371 L6.69180328,47.0774371 L6.69180328,38.0751672 L27.0307505,38.0751672 Z M27.0307505,47.7676991 L27.0307505,56.769969 L6.69180328,56.769969 L6.69180328,47.7676991 L27.0307505,47.7676991 Z M27.0307505,57.4602345 L27.0307505,66.4623319 L6.69180328,66.4623319 L6.69180328,57.4602345 L27.0307505,57.4602345 Z M27.0307505,67.1525973 L27.0307505,76.1548673 L6.69180328,76.1548673 L6.69180328,67.1525973 L27.0307505,67.1525973 Z M27.0307505,76.8451327 L27.0307505,85.8473992 L6.69180328,85.8473992 L6.69180328,76.8451327 L27.0307505,76.8451327 Z M27.0307505,86.5376647 L27.0307505,95.539762 L6.69180328,95.539762 L6.69180328,86.5376647 L27.0307505,86.5376647 Z M27.0307505,96.2300275 L27.0307505,105.232297 L6.69180328,105.232297 L6.69180328,96.2300275 L27.0307505,96.2300275 Z M27.0307505,105.922563 L27.0307505,114.92466 L6.69180328,114.92466 L6.69180328,105.922563 L27.0307505,105.922563 Z M27.0307505,115.614926 L27.0307505,124.617368 L6.69180328,124.617368 L6.69180328,115.614926 L27.0307505,115.614926 Z M27.7225538,115.614926 L48.061501,115.614926 L48.061501,124.617368 L27.7225538,124.617368 L27.7225538,115.614926 Z M48.061501,125.307634 L48.061501,134.309731 L27.7225538,134.309731 L27.7225538,125.307634 L48.061501,125.307634 Z M48.7533043,125.307634 L69.0925939,125.307634 L69.0925939,134.309731 L48.7533043,134.309731 L48.7533043,125.307634 Z M69.7843972,125.307634 L90.1233444,125.307634 L90.1233444,134.309731 L69.7843972,134.309731 L69.7843972,125.307634 Z M90.8151477,125.307634 L132.184849,125.307634 L132.184849,134.309731 L90.8151477,134.309731 L90.8151477,125.307634 Z M132.876652,125.307634 L153.215599,125.307634 L153.215599,134.309731 L132.876652,134.309731 L132.876652,125.307634 Z M153.907403,125.307634 L174.246692,125.307634 L174.246692,134.309731 L153.907403,134.309731 L153.907403,125.307634 Z M174.938496,125.307634 L195.277443,125.307634 L195.277443,134.309731 L174.938496,134.309731 L174.938496,125.307634 Z M174.938496,124.617368 L174.938496,115.614926 L195.277443,115.614926 L195.277443,124.617368 L174.938496,124.617368 Z M195.969246,115.614926 L216.308197,115.614926 L216.308197,124.617368 L195.969246,124.617368 L195.969246,115.614926 Z M195.969246,114.92466 L195.969246,105.922563 L216.308197,105.922563 L216.308197,114.92466 L195.969246,114.92466 Z M195.969246,105.232297 L195.969246,96.2300275 L216.308197,96.2300275 L216.308197,105.232297 L195.969246,105.232297 Z M195.969246,95.539762 L195.969246,86.5376647 L216.308197,86.5376647 L216.308197,95.539762 L195.969246,95.539762 Z M195.969246,85.8473992 L195.969246,76.8451327 L216.308197,76.8451327 L216.308197,85.8473992 L195.969246,85.8473992 Z M195.969246,76.1548673 L195.969246,67.1525973 L216.308197,67.1525973 L216.308197,76.1548673 L195.969246,76.1548673 Z M195.969246,66.4623319 L195.969246,57.4602345 L216.308197,57.4602345 L216.308197,66.4623319 L195.969246,66.4623319 Z M195.969246,56.769969 L195.969246,47.7676991 L216.308197,47.7676991 L216.308197,56.769969 L195.969246,56.769969 Z M195.969246,47.0774371 L195.969246,38.0751672 L216.308197,38.0751672 L216.308197,47.0774371 L195.969246,47.0774371 Z M195.969246,37.3849017 L195.969246,28.3828043 L216.308197,28.3828043 L216.308197,37.3849017 L195.969246,37.3849017 Z M27.0307505,18.6902655 L27.0307505,27.6925354 L6.69180328,27.6925354 L6.69180328,18.6902655 L27.0307505,18.6902655 Z M6.69180328,125.307641 L27.0307505,125.307641 L27.0307505,134.309738 L6.69180328,134.309738 L6.69180328,125.307641 Z M195.969246,134.309738 L195.969246,125.307641 L216.308197,125.307641 L216.308197,134.309738 L195.969246,134.309738 Z" id="Shape" fill="#E6E6E6"></path>
                </g>
            </g>
        </g>
    </g>
</svg>