<?xml version="1.0" encoding="UTF-8"?>
<svg width="16px" height="13px" viewBox="0 0 16 13" version="1.1" xmlns="http://www.w3.org/2000/svg" xmlns:xlink="http://www.w3.org/1999/xlink">
    <!-- Generator: sketchtool 62 (101010) - https://sketch.com -->
    <title>43447763-814E-410A-B81E-508A0370D04D@1x</title>
    <desc>Created with sketchtool.</desc>
    <g id="Child-Record" stroke="none" stroke-width="1" fill="none" fill-rule="evenodd">
        <g id="8.5-Child-record-–-Enrollment-and-Funding-NoFunding" transform="translate(-764.000000, -212.000000)" fill="#005EA2" fill-rule="nonzero">
            <g id="Template/ChildRecord">
                <path d="M779.777778,218.666667 L774.444444,224 C773.968254,224.47619 773.142857,224.142857 773.142857,223.460317 L773.142857,220.412698 L768.825397,220.412698 C768.403175,220.412698 768.063492,220.073016 768.063492,219.650794 L768.063492,216.603175 C768.063492,216.180952 768.403175,215.84127 768.825397,215.84127 L773.142857,215.84127 L773.142857,212.793651 C773.142857,212.114286 773.965079,211.777778 774.444444,212.253968 L779.777778,217.587302 C780.073016,217.885714 780.073016,218.368254 779.777778,218.666667 Z M770.095238,223.84127 L770.095238,222.571429 C770.095238,222.361905 769.92381,222.190476 769.714286,222.190476 L767.047619,222.190476 C766.485714,222.190476 766.031746,221.736508 766.031746,221.174603 L766.031746,215.079365 C766.031746,214.51746 766.485714,214.063492 767.047619,214.063492 L769.714286,214.063492 C769.92381,214.063492 770.095238,213.892063 770.095238,213.68254 L770.095238,212.412698 C770.095238,212.203175 769.92381,212.031746 769.714286,212.031746 L767.047619,212.031746 C765.365079,212.031746 764,213.396825 764,215.079365 L764,221.174603 C764,222.857143 765.365079,224.222222 767.047619,224.222222 L769.714286,224.222222 C769.92381,224.222222 770.095238,224.050794 770.095238,223.84127 Z" id="Shape"></path>
            </g>
        </g>
    </g>
</svg>